<svg xmlns="http://www.w3.org/2000/svg" width="4em" height="4em" preserveAspectRatio="xMidYMid meet" viewBox="0 0 24 24">
  <rect x="0" y="0" width="24" height="24" fill="none" stroke="none" />
  <path fill="currentColor" d="M12 22q-.65 0-1.175-.312q-.525-.313-.825-.838q-.825 0-1.412-.587Q8 19.675 8 18.85V15.3q-1.475-.975-2.362-2.575q-.888-1.6-.888-3.475q0-3.025 2.112-5.138Q8.975 2 12 2t5.137 2.112Q19.25 6.225 19.25 9.25q0 1.925-.887 3.5q-.888 1.575-2.363 2.55v3.55q0 .825-.587 1.413q-.588.587-1.413.587q-.3.525-.825.838Q12.65 22 12 22Zm-2-3.15h4v-.9h-4Zm0-1.9h4V16h-4ZM12.75 14v-2.7l2.2-2.2l-1.05-1.05l-1.9 1.9l-1.9-1.9L9.05 9.1l2.2 2.2V14Z" />
</svg>